<svg xmlns="http://www.w3.org/2000/svg" xmlns:xlink="http://www.w3.org/1999/xlink" width="336" zoomAndPan="magnify" viewBox="0 0 252 179.999997" height="240" preserveAspectRatio="xMidYMid meet" version="1.0"><defs><g/><clipPath id="7c29536120"><path d="M 18 19.898438 L 234 19.898438 L 234 160.148438 L 18 160.148438 Z M 18 19.898438 " clip-rule="nonzero"/></clipPath></defs><rect x="-25.2" width="302.4" fill="#ffffff" y="-18" height="215.999996" fill-opacity="1"/><rect x="-25.2" width="302.4" fill="#ffffff" y="-18" height="215.999996" fill-opacity="1"/><g clip-path="url(#7c29536120)"><path fill="#000000" d="M 222.769531 19.996094 L 29.230469 19.996094 C 28.492188 19.996094 27.761719 20.066406 27.039062 20.210938 C 26.316406 20.355469 25.613281 20.570312 24.933594 20.851562 C 24.25 21.132812 23.605469 21.480469 22.992188 21.890625 C 22.378906 22.300781 21.8125 22.765625 21.289062 23.285156 C 20.769531 23.808594 20.300781 24.375 19.894531 24.988281 C 19.484375 25.601562 19.136719 26.25 18.855469 26.929688 C 18.574219 27.613281 18.359375 28.316406 18.214844 29.039062 C 18.070312 29.761719 18 30.492188 18 31.230469 L 18 148.816406 C 18 149.554688 18.070312 150.285156 18.214844 151.007812 C 18.359375 151.730469 18.574219 152.433594 18.855469 153.113281 C 19.136719 153.796875 19.484375 154.445312 19.894531 155.058594 C 20.300781 155.671875 20.769531 156.238281 21.289062 156.757812 C 21.8125 157.28125 22.378906 157.746094 22.992188 158.15625 C 23.605469 158.566406 24.25 158.914062 24.933594 159.195312 C 25.613281 159.476562 26.316406 159.691406 27.039062 159.835938 C 27.761719 159.976562 28.492188 160.050781 29.230469 160.050781 L 222.769531 160.050781 C 223.507812 160.050781 224.238281 159.976562 224.960938 159.835938 C 225.683594 159.691406 226.386719 159.476562 227.066406 159.195312 C 227.75 158.914062 228.394531 158.566406 229.007812 158.15625 C 229.621094 157.746094 230.1875 157.28125 230.710938 156.757812 C 231.230469 156.238281 231.699219 155.671875 232.105469 155.058594 C 232.515625 154.445312 232.863281 153.796875 233.144531 153.113281 C 233.425781 152.433594 233.640625 151.730469 233.785156 151.007812 C 233.929688 150.285156 234 149.554688 234 148.816406 L 234 31.230469 C 234 30.492188 233.929688 29.761719 233.785156 29.039062 C 233.640625 28.316406 233.425781 27.613281 233.144531 26.929688 C 232.863281 26.25 232.515625 25.601562 232.105469 24.988281 C 231.699219 24.375 231.230469 23.808594 230.710938 23.285156 C 230.1875 22.765625 229.621094 22.300781 229.007812 21.890625 C 228.394531 21.480469 227.75 21.132812 227.066406 20.851562 C 226.386719 20.570312 225.683594 20.355469 224.960938 20.210938 C 224.238281 20.066406 223.507812 19.996094 222.769531 19.996094 Z M 230.257812 148.816406 C 230.257812 149.308594 230.207031 149.792969 230.113281 150.277344 C 230.015625 150.757812 229.875 151.226562 229.6875 151.683594 C 229.5 152.136719 229.269531 152.566406 228.996094 152.976562 C 228.722656 153.386719 228.410156 153.765625 228.0625 154.113281 C 227.714844 154.460938 227.335938 154.769531 226.929688 155.042969 C 226.519531 155.316406 226.089844 155.546875 225.632812 155.734375 C 225.179688 155.921875 224.710938 156.066406 224.230469 156.160156 C 223.746094 156.257812 223.261719 156.304688 222.769531 156.304688 L 29.230469 156.304688 C 28.738281 156.304688 28.253906 156.257812 27.769531 156.160156 C 27.289062 156.066406 26.820312 155.921875 26.367188 155.734375 C 25.910156 155.546875 25.480469 155.316406 25.070312 155.042969 C 24.664062 154.769531 24.285156 154.460938 23.9375 154.113281 C 23.589844 153.765625 23.277344 153.386719 23.003906 152.976562 C 22.730469 152.566406 22.5 152.136719 22.3125 151.683594 C 22.125 151.226562 21.984375 150.757812 21.886719 150.277344 C 21.792969 149.792969 21.742188 149.308594 21.742188 148.816406 L 21.742188 31.230469 C 21.742188 30.738281 21.792969 30.25 21.886719 29.769531 C 21.984375 29.289062 22.125 28.820312 22.3125 28.363281 C 22.5 27.910156 22.730469 27.476562 23.003906 27.070312 C 23.277344 26.660156 23.589844 26.28125 23.9375 25.933594 C 24.285156 25.585938 24.664062 25.277344 25.070312 25.003906 C 25.480469 24.730469 25.910156 24.5 26.367188 24.3125 C 26.820312 24.121094 27.289062 23.980469 27.769531 23.886719 C 28.253906 23.789062 28.738281 23.742188 29.230469 23.742188 L 222.769531 23.742188 C 223.261719 23.742188 223.746094 23.789062 224.230469 23.886719 C 224.710938 23.980469 225.179688 24.121094 225.632812 24.3125 C 226.089844 24.5 226.519531 24.730469 226.929688 25.003906 C 227.335938 25.277344 227.714844 25.585938 228.0625 25.933594 C 228.410156 26.28125 228.722656 26.660156 228.996094 27.070312 C 229.269531 27.476562 229.5 27.910156 229.6875 28.363281 C 229.875 28.820312 230.015625 29.285156 230.113281 29.769531 C 230.207031 30.25 230.257812 30.738281 230.257812 31.230469 Z M 230.257812 148.816406 " fill-opacity="1" fill-rule="nonzero"/></g><path fill="#000000" d="M 41.769531 72.964844 L 63.390625 72.964844 C 63.882812 72.964844 64.367188 72.917969 64.851562 72.820312 C 65.332031 72.726562 65.800781 72.582031 66.253906 72.394531 C 66.710938 72.207031 67.140625 71.976562 67.550781 71.703125 C 67.957031 71.429688 68.335938 71.121094 68.683594 70.773438 C 69.03125 70.425781 69.34375 70.046875 69.613281 69.636719 C 69.886719 69.226562 70.117188 68.796875 70.308594 68.34375 C 70.496094 67.886719 70.636719 67.417969 70.734375 66.9375 C 70.828125 66.457031 70.875 65.96875 70.875 65.476562 L 70.875 43.792969 C 70.875 43.300781 70.828125 42.816406 70.734375 42.332031 C 70.636719 41.851562 70.496094 41.382812 70.308594 40.929688 C 70.117188 40.472656 69.886719 40.042969 69.613281 39.632812 C 69.34375 39.222656 69.03125 38.847656 68.683594 38.5 C 68.335938 38.152344 67.957031 37.839844 67.550781 37.566406 C 67.140625 37.292969 66.710938 37.0625 66.253906 36.875 C 65.800781 36.6875 65.332031 36.542969 64.851562 36.449219 C 64.367188 36.351562 63.882812 36.304688 63.390625 36.304688 L 41.769531 36.304688 C 41.28125 36.304688 40.792969 36.351562 40.3125 36.449219 C 39.828125 36.542969 39.359375 36.6875 38.90625 36.875 C 38.453125 37.0625 38.019531 37.292969 37.613281 37.566406 C 37.203125 37.839844 36.824219 38.152344 36.476562 38.5 C 36.128906 38.847656 35.820312 39.222656 35.546875 39.632812 C 35.273438 40.042969 35.042969 40.472656 34.855469 40.929688 C 34.664062 41.382812 34.523438 41.851562 34.429688 42.332031 C 34.332031 42.816406 34.285156 43.300781 34.285156 43.792969 L 34.285156 65.476562 C 34.285156 65.96875 34.332031 66.457031 34.429688 66.9375 C 34.523438 67.417969 34.664062 67.886719 34.855469 68.34375 C 35.042969 68.796875 35.273438 69.226562 35.546875 69.636719 C 35.820312 70.046875 36.128906 70.425781 36.476562 70.773438 C 36.824219 71.121094 37.203125 71.429688 37.613281 71.703125 C 38.019531 71.976562 38.453125 72.207031 38.90625 72.394531 C 39.359375 72.582031 39.828125 72.726562 40.3125 72.820312 C 40.792969 72.917969 41.28125 72.964844 41.769531 72.964844 Z M 63.425781 69.222656 L 54.441406 69.222656 L 54.441406 56.507812 L 67.132812 56.507812 L 67.132812 65.476562 C 67.132812 65.972656 67.039062 66.449219 66.847656 66.910156 C 66.660156 67.367188 66.386719 67.773438 66.035156 68.125 C 65.6875 68.476562 65.28125 68.746094 64.824219 68.9375 C 64.363281 69.125 63.886719 69.222656 63.390625 69.222656 Z M 67.171875 43.792969 L 67.171875 52.761719 L 54.441406 52.761719 L 54.441406 40.050781 L 63.390625 40.050781 C 63.886719 40.050781 64.363281 40.144531 64.824219 40.335938 C 65.28125 40.523438 65.6875 40.796875 66.035156 41.144531 C 66.386719 41.496094 66.660156 41.902344 66.847656 42.359375 C 67.039062 42.820312 67.132812 43.296875 67.132812 43.792969 Z M 38.027344 43.792969 C 38.027344 43.296875 38.121094 42.820312 38.3125 42.359375 C 38.503906 41.902344 38.773438 41.496094 39.125 41.144531 C 39.476562 40.796875 39.878906 40.523438 40.339844 40.335938 C 40.796875 40.144531 41.273438 40.050781 41.769531 40.050781 L 50.738281 40.050781 L 50.738281 69.222656 L 41.769531 69.222656 C 41.273438 69.222656 40.796875 69.125 40.339844 68.9375 C 39.878906 68.746094 39.476562 68.476562 39.125 68.125 C 38.773438 67.773438 38.503906 67.367188 38.3125 66.910156 C 38.121094 66.449219 38.027344 65.972656 38.027344 65.476562 Z M 38.027344 43.792969 " fill-opacity="1" fill-rule="nonzero"/><path fill="#000000" d="M 38.625 91.765625 L 38.625 102.304688 C 38.625 102.554688 38.675781 102.792969 38.769531 103.023438 C 38.863281 103.25 39 103.453125 39.175781 103.628906 C 39.351562 103.804688 39.554688 103.941406 39.78125 104.035156 C 40.011719 104.128906 40.25 104.179688 40.5 104.179688 C 40.746094 104.179688 40.984375 104.128906 41.214844 104.035156 C 41.445312 103.941406 41.644531 103.804688 41.820312 103.628906 C 41.996094 103.453125 42.132812 103.25 42.226562 103.023438 C 42.324219 102.792969 42.371094 102.554688 42.371094 102.304688 L 42.371094 91.765625 C 42.371094 91.515625 42.324219 91.277344 42.226562 91.046875 C 42.132812 90.820312 41.996094 90.617188 41.820312 90.441406 C 41.644531 90.265625 41.445312 90.128906 41.214844 90.035156 C 40.984375 89.941406 40.746094 89.890625 40.5 89.890625 C 40.25 89.890625 40.011719 89.941406 39.78125 90.035156 C 39.554688 90.128906 39.351562 90.265625 39.175781 90.441406 C 39 90.617188 38.863281 90.820312 38.769531 91.046875 C 38.675781 91.277344 38.625 91.515625 38.625 91.765625 Z M 38.625 91.765625 " fill-opacity="1" fill-rule="nonzero"/><path fill="#000000" d="M 53.769531 91.765625 L 53.769531 102.304688 C 53.769531 102.554688 53.816406 102.792969 53.910156 103.023438 C 54.007812 103.25 54.140625 103.453125 54.316406 103.628906 C 54.492188 103.804688 54.695312 103.941406 54.925781 104.035156 C 55.152344 104.128906 55.394531 104.179688 55.640625 104.179688 C 55.890625 104.179688 56.128906 104.128906 56.355469 104.035156 C 56.585938 103.941406 56.789062 103.804688 56.964844 103.628906 C 57.140625 103.453125 57.273438 103.25 57.371094 103.023438 C 57.464844 102.792969 57.511719 102.554688 57.511719 102.304688 L 57.511719 91.765625 C 57.511719 91.515625 57.464844 91.277344 57.371094 91.046875 C 57.273438 90.820312 57.140625 90.617188 56.964844 90.441406 C 56.789062 90.265625 56.585938 90.128906 56.355469 90.035156 C 56.128906 89.941406 55.890625 89.890625 55.640625 89.890625 C 55.394531 89.890625 55.152344 89.941406 54.925781 90.035156 C 54.695312 90.128906 54.492188 90.265625 54.316406 90.441406 C 54.140625 90.617188 54.007812 90.820312 53.910156 91.046875 C 53.816406 91.277344 53.769531 91.515625 53.769531 91.765625 Z M 53.769531 91.765625 " fill-opacity="1" fill-rule="nonzero"/><path fill="#000000" d="M 68.910156 91.765625 L 68.910156 102.304688 C 68.910156 102.554688 68.960938 102.792969 69.054688 103.023438 C 69.148438 103.25 69.285156 103.453125 69.460938 103.628906 C 69.636719 103.804688 69.835938 103.941406 70.066406 104.035156 C 70.296875 104.128906 70.535156 104.179688 70.785156 104.179688 C 71.03125 104.179688 71.269531 104.128906 71.5 104.035156 C 71.730469 103.941406 71.929688 103.804688 72.105469 103.628906 C 72.28125 103.453125 72.417969 103.25 72.511719 103.023438 C 72.609375 102.792969 72.65625 102.554688 72.65625 102.304688 L 72.65625 91.765625 C 72.65625 91.515625 72.609375 91.277344 72.511719 91.046875 C 72.417969 90.820312 72.28125 90.617188 72.105469 90.441406 C 71.929688 90.265625 71.730469 90.128906 71.5 90.035156 C 71.269531 89.941406 71.03125 89.890625 70.785156 89.890625 C 70.535156 89.890625 70.296875 89.941406 70.066406 90.035156 C 69.835938 90.128906 69.636719 90.265625 69.460938 90.441406 C 69.285156 90.617188 69.148438 90.820312 69.054688 91.046875 C 68.960938 91.277344 68.910156 91.515625 68.910156 91.765625 Z M 68.910156 91.765625 " fill-opacity="1" fill-rule="nonzero"/><path fill="#000000" d="M 183.089844 102.304688 L 183.089844 91.765625 C 183.089844 91.515625 183.039062 91.277344 182.945312 91.046875 C 182.851562 90.820312 182.714844 90.617188 182.539062 90.441406 C 182.363281 90.265625 182.164062 90.128906 181.933594 90.035156 C 181.703125 89.941406 181.464844 89.890625 181.214844 89.890625 C 180.96875 89.890625 180.730469 89.941406 180.5 90.035156 C 180.269531 90.128906 180.070312 90.265625 179.894531 90.441406 C 179.71875 90.617188 179.582031 90.820312 179.488281 91.046875 C 179.390625 91.277344 179.34375 91.515625 179.34375 91.765625 L 179.34375 102.304688 C 179.34375 102.554688 179.390625 102.792969 179.488281 103.023438 C 179.582031 103.25 179.71875 103.453125 179.894531 103.628906 C 180.070312 103.804688 180.269531 103.941406 180.5 104.035156 C 180.730469 104.128906 180.96875 104.179688 181.214844 104.179688 C 181.464844 104.179688 181.703125 104.128906 181.933594 104.035156 C 182.164062 103.941406 182.363281 103.804688 182.539062 103.628906 C 182.714844 103.453125 182.851562 103.25 182.945312 103.023438 C 183.039062 102.792969 183.089844 102.554688 183.089844 102.304688 Z M 183.089844 102.304688 " fill-opacity="1" fill-rule="nonzero"/><path fill="#000000" d="M 198.230469 102.304688 L 198.230469 91.765625 C 198.230469 91.515625 198.183594 91.277344 198.089844 91.046875 C 197.992188 90.820312 197.859375 90.617188 197.683594 90.441406 C 197.507812 90.265625 197.304688 90.128906 197.074219 90.035156 C 196.847656 89.941406 196.605469 89.890625 196.359375 89.890625 C 196.109375 89.890625 195.871094 89.941406 195.644531 90.035156 C 195.414062 90.128906 195.210938 90.265625 195.035156 90.441406 C 194.859375 90.617188 194.726562 90.820312 194.628906 91.046875 C 194.535156 91.277344 194.488281 91.515625 194.488281 91.765625 L 194.488281 102.304688 C 194.488281 102.554688 194.535156 102.792969 194.628906 103.023438 C 194.726562 103.25 194.859375 103.453125 195.035156 103.628906 C 195.210938 103.804688 195.414062 103.941406 195.644531 104.035156 C 195.871094 104.128906 196.109375 104.179688 196.359375 104.179688 C 196.605469 104.179688 196.847656 104.128906 197.074219 104.035156 C 197.304688 103.941406 197.507812 103.804688 197.683594 103.628906 C 197.859375 103.453125 197.992188 103.25 198.089844 103.023438 C 198.183594 102.792969 198.230469 102.554688 198.230469 102.304688 Z M 198.230469 102.304688 " fill-opacity="1" fill-rule="nonzero"/><path fill="#000000" d="M 213.375 102.304688 L 213.375 91.765625 C 213.375 91.515625 213.324219 91.277344 213.230469 91.046875 C 213.136719 90.820312 213 90.617188 212.824219 90.441406 C 212.648438 90.265625 212.445312 90.128906 212.21875 90.035156 C 211.988281 89.941406 211.75 89.890625 211.5 89.890625 C 211.253906 89.890625 211.015625 89.941406 210.785156 90.035156 C 210.554688 90.128906 210.351562 90.265625 210.179688 90.441406 C 210.003906 90.617188 209.867188 90.820312 209.773438 91.046875 C 209.675781 91.277344 209.628906 91.515625 209.628906 91.765625 L 209.628906 102.304688 C 209.628906 102.554688 209.675781 102.792969 209.773438 103.023438 C 209.867188 103.25 210.003906 103.453125 210.179688 103.628906 C 210.351562 103.804688 210.554688 103.941406 210.785156 104.035156 C 211.015625 104.128906 211.253906 104.179688 211.5 104.179688 C 211.75 104.179688 211.988281 104.128906 212.21875 104.035156 C 212.445312 103.941406 212.648438 103.804688 212.824219 103.628906 C 213 103.453125 213.136719 103.25 213.230469 103.023438 C 213.324219 102.792969 213.375 102.554688 213.375 102.304688 Z M 213.375 102.304688 " fill-opacity="1" fill-rule="nonzero"/><path fill="#000000" d="M 103.277344 104.179688 C 103.523438 104.179688 103.765625 104.128906 103.992188 104.035156 C 104.222656 103.941406 104.425781 103.804688 104.601562 103.628906 C 104.777344 103.453125 104.910156 103.25 105.007812 103.023438 C 105.101562 102.792969 105.148438 102.554688 105.148438 102.304688 L 105.148438 91.765625 C 105.148438 91.515625 105.101562 91.277344 105.007812 91.046875 C 104.910156 90.820312 104.777344 90.617188 104.601562 90.441406 C 104.425781 90.265625 104.222656 90.128906 103.992188 90.035156 C 103.765625 89.941406 103.523438 89.890625 103.277344 89.890625 C 103.027344 89.890625 102.789062 89.941406 102.5625 90.035156 C 102.332031 90.128906 102.128906 90.265625 101.953125 90.441406 C 101.777344 90.617188 101.644531 90.820312 101.546875 91.046875 C 101.453125 91.277344 101.40625 91.515625 101.40625 91.765625 L 101.40625 102.304688 C 101.40625 102.554688 101.453125 102.792969 101.546875 103.023438 C 101.644531 103.25 101.777344 103.453125 101.953125 103.628906 C 102.128906 103.804688 102.332031 103.941406 102.5625 104.035156 C 102.789062 104.128906 103.027344 104.179688 103.277344 104.179688 Z M 103.277344 104.179688 " fill-opacity="1" fill-rule="nonzero"/><path fill="#000000" d="M 118.511719 104.179688 C 118.761719 104.179688 119 104.128906 119.230469 104.035156 C 119.457031 103.941406 119.660156 103.804688 119.835938 103.628906 C 120.011719 103.453125 120.148438 103.25 120.242188 103.023438 C 120.335938 102.792969 120.382812 102.554688 120.382812 102.304688 L 120.382812 91.765625 C 120.382812 91.515625 120.335938 91.277344 120.242188 91.046875 C 120.148438 90.820312 120.011719 90.617188 119.835938 90.441406 C 119.660156 90.265625 119.457031 90.128906 119.230469 90.035156 C 119 89.941406 118.761719 89.890625 118.511719 89.890625 C 118.265625 89.890625 118.027344 89.941406 117.796875 90.035156 C 117.566406 90.128906 117.363281 90.265625 117.191406 90.441406 C 117.015625 90.617188 116.878906 90.820312 116.785156 91.046875 C 116.6875 91.277344 116.640625 91.515625 116.640625 91.765625 L 116.640625 102.304688 C 116.640625 102.554688 116.6875 102.792969 116.785156 103.023438 C 116.878906 103.25 117.015625 103.453125 117.191406 103.628906 C 117.363281 103.804688 117.566406 103.941406 117.796875 104.035156 C 118.027344 104.128906 118.265625 104.179688 118.511719 104.179688 Z M 118.511719 104.179688 " fill-opacity="1" fill-rule="nonzero"/><path fill="#000000" d="M 133.582031 104.179688 C 133.828125 104.179688 134.066406 104.128906 134.296875 104.035156 C 134.527344 103.941406 134.730469 103.804688 134.902344 103.628906 C 135.078125 103.453125 135.214844 103.25 135.308594 103.023438 C 135.40625 102.792969 135.453125 102.554688 135.453125 102.304688 L 135.453125 91.765625 C 135.453125 91.515625 135.40625 91.277344 135.308594 91.046875 C 135.214844 90.820312 135.078125 90.617188 134.902344 90.441406 C 134.730469 90.265625 134.527344 90.128906 134.296875 90.035156 C 134.066406 89.941406 133.828125 89.890625 133.582031 89.890625 C 133.332031 89.890625 133.09375 89.941406 132.863281 90.035156 C 132.636719 90.128906 132.433594 90.265625 132.257812 90.441406 C 132.082031 90.617188 131.945312 90.820312 131.851562 91.046875 C 131.757812 91.277344 131.707031 91.515625 131.707031 91.765625 L 131.707031 102.304688 C 131.707031 102.554688 131.757812 102.792969 131.851562 103.023438 C 131.945312 103.25 132.082031 103.453125 132.257812 103.628906 C 132.433594 103.804688 132.636719 103.941406 132.863281 104.035156 C 133.09375 104.128906 133.332031 104.179688 133.582031 104.179688 Z M 133.582031 104.179688 " fill-opacity="1" fill-rule="nonzero"/><path fill="#000000" d="M 148.722656 104.179688 C 148.972656 104.179688 149.210938 104.128906 149.4375 104.035156 C 149.667969 103.941406 149.871094 103.804688 150.046875 103.628906 C 150.222656 103.453125 150.355469 103.25 150.453125 103.023438 C 150.546875 102.792969 150.59375 102.554688 150.59375 102.304688 L 150.59375 91.765625 C 150.59375 91.515625 150.546875 91.277344 150.453125 91.046875 C 150.355469 90.820312 150.222656 90.617188 150.046875 90.441406 C 149.871094 90.265625 149.667969 90.128906 149.4375 90.035156 C 149.210938 89.941406 148.972656 89.890625 148.722656 89.890625 C 148.476562 89.890625 148.234375 89.941406 148.007812 90.035156 C 147.777344 90.128906 147.574219 90.265625 147.398438 90.441406 C 147.222656 90.617188 147.089844 90.820312 146.992188 91.046875 C 146.898438 91.277344 146.851562 91.515625 146.851562 91.765625 L 146.851562 102.304688 C 146.851562 102.554688 146.898438 102.792969 146.992188 103.023438 C 147.089844 103.25 147.222656 103.453125 147.398438 103.628906 C 147.574219 103.804688 147.777344 103.941406 148.007812 104.035156 C 148.234375 104.128906 148.476562 104.179688 148.722656 104.179688 Z M 148.722656 104.179688 " fill-opacity="1" fill-rule="nonzero"/><path fill="#000000" d="M 149.882812 125.597656 L 36.15625 125.597656 C 35.90625 125.597656 35.667969 125.644531 35.441406 125.742188 C 35.210938 125.835938 35.007812 125.972656 34.832031 126.148438 C 34.65625 126.324219 34.523438 126.523438 34.425781 126.753906 C 34.332031 126.984375 34.285156 127.222656 34.285156 127.46875 C 34.285156 127.71875 34.332031 127.957031 34.425781 128.1875 C 34.523438 128.417969 34.65625 128.617188 34.832031 128.792969 C 35.007812 128.96875 35.210938 129.105469 35.441406 129.199219 C 35.667969 129.296875 35.90625 129.34375 36.15625 129.34375 L 149.882812 129.34375 C 150.132812 129.34375 150.371094 129.296875 150.601562 129.199219 C 150.828125 129.105469 151.03125 128.96875 151.207031 128.792969 C 151.382812 128.617188 151.519531 128.417969 151.613281 128.1875 C 151.707031 127.957031 151.753906 127.71875 151.753906 127.46875 C 151.753906 127.222656 151.707031 126.984375 151.613281 126.753906 C 151.519531 126.523438 151.382812 126.324219 151.207031 126.148438 C 151.03125 125.972656 150.828125 125.835938 150.601562 125.742188 C 150.371094 125.644531 150.132812 125.597656 149.882812 125.597656 Z M 149.882812 125.597656 " fill-opacity="1" fill-rule="nonzero"/><path fill="#000000" d="M 118.046875 139.996094 L 36.15625 139.996094 C 35.90625 139.996094 35.667969 140.042969 35.441406 140.140625 C 35.210938 140.234375 35.007812 140.371094 34.832031 140.546875 C 34.65625 140.722656 34.523438 140.921875 34.425781 141.152344 C 34.332031 141.382812 34.285156 141.621094 34.285156 141.871094 C 34.285156 142.117188 34.332031 142.355469 34.425781 142.585938 C 34.523438 142.816406 34.65625 143.019531 34.832031 143.191406 C 35.007812 143.367188 35.210938 143.503906 35.441406 143.597656 C 35.667969 143.695312 35.90625 143.742188 36.15625 143.742188 L 118.046875 143.742188 C 118.292969 143.742188 118.53125 143.695312 118.761719 143.597656 C 118.992188 143.503906 119.191406 143.367188 119.367188 143.191406 C 119.542969 143.019531 119.679688 142.816406 119.773438 142.585938 C 119.871094 142.355469 119.917969 142.117188 119.917969 141.871094 C 119.917969 141.621094 119.871094 141.382812 119.773438 141.152344 C 119.679688 140.921875 119.542969 140.722656 119.367188 140.546875 C 119.191406 140.371094 118.992188 140.234375 118.761719 140.140625 C 118.53125 140.042969 118.292969 139.996094 118.046875 139.996094 Z M 118.046875 139.996094 " fill-opacity="1" fill-rule="nonzero"/><path fill="#000000" d="M 215.84375 125.597656 L 175.191406 125.597656 C 174.941406 125.597656 174.703125 125.644531 174.472656 125.742188 C 174.242188 125.835938 174.042969 125.972656 173.867188 126.148438 C 173.691406 126.324219 173.554688 126.523438 173.460938 126.753906 C 173.367188 126.984375 173.316406 127.222656 173.316406 127.46875 L 173.316406 141.832031 C 173.316406 142.082031 173.367188 142.320312 173.460938 142.546875 C 173.554688 142.777344 173.691406 142.980469 173.867188 143.15625 C 174.042969 143.332031 174.242188 143.464844 174.472656 143.5625 C 174.703125 143.65625 174.941406 143.703125 175.191406 143.703125 L 215.84375 143.703125 C 216.09375 143.703125 216.332031 143.65625 216.558594 143.5625 C 216.789062 143.464844 216.992188 143.332031 217.167969 143.15625 C 217.34375 142.980469 217.476562 142.777344 217.574219 142.546875 C 217.667969 142.320312 217.714844 142.082031 217.714844 141.832031 L 217.714844 127.46875 C 217.714844 127.222656 217.667969 126.984375 217.574219 126.753906 C 217.476562 126.523438 217.34375 126.324219 217.167969 126.148438 C 216.992188 125.972656 216.789062 125.835938 216.558594 125.742188 C 216.332031 125.644531 216.09375 125.597656 215.84375 125.597656 Z M 213.972656 139.960938 L 177.0625 139.960938 L 177.0625 129.34375 L 213.972656 129.34375 Z M 213.972656 139.960938 " fill-opacity="1" fill-rule="nonzero"/><path fill="#000000" d="M 215.84375 36.304688 L 175.191406 36.304688 C 174.941406 36.304688 174.703125 36.351562 174.472656 36.445312 C 174.242188 36.542969 174.042969 36.675781 173.867188 36.851562 C 173.691406 37.027344 173.554688 37.230469 173.460938 37.460938 C 173.367188 37.691406 173.316406 37.929688 173.316406 38.175781 C 173.316406 38.425781 173.367188 38.664062 173.460938 38.894531 C 173.554688 39.121094 173.691406 39.324219 173.867188 39.5 C 174.042969 39.675781 174.242188 39.8125 174.472656 39.90625 C 174.703125 40 174.941406 40.050781 175.191406 40.050781 L 215.84375 40.050781 C 216.09375 40.050781 216.332031 40 216.558594 39.90625 C 216.789062 39.8125 216.992188 39.675781 217.167969 39.5 C 217.34375 39.324219 217.476562 39.121094 217.574219 38.894531 C 217.667969 38.664062 217.714844 38.425781 217.714844 38.175781 C 217.714844 37.929688 217.667969 37.691406 217.574219 37.460938 C 217.476562 37.230469 217.34375 37.027344 217.167969 36.851562 C 216.992188 36.675781 216.789062 36.542969 216.558594 36.445312 C 216.332031 36.351562 216.09375 36.304688 215.84375 36.304688 Z M 215.84375 36.304688 " fill-opacity="1" fill-rule="nonzero"/><g fill="#000000" fill-opacity="1"><g transform="translate(95.300533, 61.983776)"><g><path d="M 9.6875 0.328125 C 8.851562 0.328125 8 0.257812 7.125 0.125 C 6.25 0 5.414062 -0.179688 4.625 -0.421875 C 3.84375 -0.660156 3.140625 -0.957031 2.515625 -1.3125 C 2.078125 -1.5625 1.765625 -1.878906 1.578125 -2.265625 C 1.398438 -2.648438 1.335938 -3.039062 1.390625 -3.4375 C 1.441406 -3.84375 1.59375 -4.203125 1.84375 -4.515625 C 2.09375 -4.828125 2.410156 -5.023438 2.796875 -5.109375 C 3.191406 -5.203125 3.628906 -5.128906 4.109375 -4.890625 C 4.929688 -4.429688 5.828125 -4.09375 6.796875 -3.875 C 7.765625 -3.65625 8.726562 -3.546875 9.6875 -3.546875 C 11.144531 -3.546875 12.179688 -3.769531 12.796875 -4.21875 C 13.421875 -4.664062 13.734375 -5.226562 13.734375 -5.90625 C 13.734375 -6.488281 13.515625 -6.945312 13.078125 -7.28125 C 12.640625 -7.625 11.867188 -7.914062 10.765625 -8.15625 L 7.375 -8.875 C 5.457031 -9.28125 4.03125 -9.96875 3.09375 -10.9375 C 2.164062 -11.90625 1.703125 -13.179688 1.703125 -14.765625 C 1.703125 -15.765625 1.910156 -16.671875 2.328125 -17.484375 C 2.753906 -18.304688 3.347656 -19.015625 4.109375 -19.609375 C 4.867188 -20.210938 5.773438 -20.675781 6.828125 -21 C 7.878906 -21.320312 9.035156 -21.484375 10.296875 -21.484375 C 11.410156 -21.484375 12.503906 -21.347656 13.578125 -21.078125 C 14.660156 -20.804688 15.613281 -20.410156 16.4375 -19.890625 C 16.84375 -19.648438 17.117188 -19.34375 17.265625 -18.96875 C 17.410156 -18.601562 17.457031 -18.234375 17.40625 -17.859375 C 17.363281 -17.492188 17.21875 -17.171875 16.96875 -16.890625 C 16.71875 -16.609375 16.398438 -16.425781 16.015625 -16.34375 C 15.640625 -16.269531 15.179688 -16.363281 14.640625 -16.625 C 13.984375 -16.957031 13.285156 -17.203125 12.546875 -17.359375 C 11.804688 -17.523438 11.046875 -17.609375 10.265625 -17.609375 C 9.421875 -17.609375 8.703125 -17.5 8.109375 -17.28125 C 7.523438 -17.0625 7.078125 -16.75 6.765625 -16.34375 C 6.453125 -15.945312 6.296875 -15.488281 6.296875 -14.96875 C 6.296875 -14.382812 6.503906 -13.910156 6.921875 -13.546875 C 7.347656 -13.191406 8.082031 -12.90625 9.125 -12.6875 L 12.515625 -11.96875 C 14.472656 -11.550781 15.929688 -10.875 16.890625 -9.9375 C 17.847656 -9.007812 18.328125 -7.785156 18.328125 -6.265625 C 18.328125 -5.265625 18.125 -4.359375 17.71875 -3.546875 C 17.320312 -2.742188 16.742188 -2.050781 15.984375 -1.46875 C 15.222656 -0.882812 14.3125 -0.4375 13.25 -0.125 C 12.195312 0.175781 11.007812 0.328125 9.6875 0.328125 Z M 9.6875 0.328125 "/></g></g></g><g fill="#000000" fill-opacity="1"><g transform="translate(114.523058, 61.983776)"><g><path d="M 4.5625 0 C 3.78125 0 3.175781 -0.207031 2.75 -0.625 C 2.332031 -1.050781 2.125 -1.65625 2.125 -2.4375 L 2.125 -18.71875 C 2.125 -19.5 2.332031 -20.097656 2.75 -20.515625 C 3.175781 -20.941406 3.78125 -21.15625 4.5625 -21.15625 L 10.40625 -21.15625 C 14.03125 -21.15625 16.828125 -20.238281 18.796875 -18.40625 C 20.765625 -16.570312 21.75 -13.96875 21.75 -10.59375 C 21.75 -8.894531 21.492188 -7.390625 20.984375 -6.078125 C 20.472656 -4.765625 19.738281 -3.65625 18.78125 -2.75 C 17.820312 -1.851562 16.640625 -1.171875 15.234375 -0.703125 C 13.835938 -0.234375 12.226562 0 10.40625 0 Z M 6.78125 -3.8125 L 10.140625 -3.8125 C 11.273438 -3.8125 12.265625 -3.953125 13.109375 -4.234375 C 13.953125 -4.515625 14.648438 -4.929688 15.203125 -5.484375 C 15.765625 -6.046875 16.1875 -6.75 16.46875 -7.59375 C 16.75 -8.445312 16.890625 -9.445312 16.890625 -10.59375 C 16.890625 -12.875 16.320312 -14.566406 15.1875 -15.671875 C 14.0625 -16.785156 12.378906 -17.34375 10.140625 -17.34375 L 6.78125 -17.34375 Z M 6.78125 -3.8125 "/></g></g></g><g fill="#000000" fill-opacity="1"><g transform="translate(137.734044, 61.983776)"><g><path d="M 9.515625 0.265625 C 8.753906 0.265625 8.171875 0.0546875 7.765625 -0.359375 C 7.367188 -0.773438 7.171875 -1.363281 7.171875 -2.125 L 7.171875 -17.3125 L 1.859375 -17.3125 C 1.242188 -17.3125 0.765625 -17.476562 0.421875 -17.8125 C 0.078125 -18.15625 -0.09375 -18.628906 -0.09375 -19.234375 C -0.09375 -19.847656 0.078125 -20.320312 0.421875 -20.65625 C 0.765625 -20.988281 1.242188 -21.15625 1.859375 -21.15625 L 17.125 -21.15625 C 17.75 -21.15625 18.226562 -20.988281 18.5625 -20.65625 C 18.90625 -20.320312 19.078125 -19.847656 19.078125 -19.234375 C 19.078125 -18.628906 18.90625 -18.15625 18.5625 -17.8125 C 18.226562 -17.476562 17.75 -17.3125 17.125 -17.3125 L 11.8125 -17.3125 L 11.8125 -2.125 C 11.8125 -1.363281 11.617188 -0.773438 11.234375 -0.359375 C 10.847656 0.0546875 10.273438 0.265625 9.515625 0.265625 Z M 9.515625 0.265625 "/></g></g></g></svg>